<svg xmlns="http://www.w3.org/2000/svg" aria-hidden="true" style="position:absolute;width:0;height:0;overflow:hidden">
  <defs>
    <symbol id="icon-icons8-telegram" viewBox="0 0 32 32">
      <path d="M16 1.28C7.878 1.28 1.28 7.878 1.28 16S7.878 30.72 16 30.72 30.72 24.122 30.72 16 24.122 1.28 16 1.28zm0 1.28c7.43 0 13.44 6.01 13.44 13.44S23.43 29.44 16 29.44 2.56 23.43 2.56 16 8.57 2.56 16 2.56zm5.816 6.422c-.438 0-.93.101-1.505.309-.893.322-11.402 4.784-12.598 5.291-.684.291-1.956.831-1.956 2.12 0 .854.501 1.465 1.486 1.817.53.189 1.788.57 2.519.771a3.7 3.7 0 0 0 .978.129c.662 0 1.329-.165 1.851-.456-.004.108-.002.216.011.325.079.672.493 1.304 1.107 1.691.402.253 3.685 2.453 4.175 2.803.689.492 1.45.753 2.2.753 1.434 0 1.915-1.48 2.146-2.191.336-1.032 1.594-9.427 1.736-10.908.097-1.014-.326-1.85-1.131-2.235a2.337 2.337 0 0 0-1.02-.219zm0 1.28c.176 0 .333.029.466.094.303.145.457.469.41.959-.155 1.615-1.41 9.811-1.677 10.632-.229.703-.47 1.308-.93 1.308s-.962-.161-1.456-.515c-.495-.353-3.78-2.556-4.236-2.844-.4-.252-.823-.881-.227-1.489.491-.5 4.214-4.114 4.533-4.433.237-.237.126-.524-.106-.524a.446.446 0 0 0-.275.115c-.389.318-5.814 3.948-6.284 4.24-.311.193-.793.332-1.293.332-.213 0-.429-.026-.636-.082a49.295 49.295 0 0 1-2.429-.742c-.467-.166-.636-.326-.636-.611 0-.406.573-.686 1.176-.943.637-.271 11.667-4.955 12.53-5.265.399-.145.765-.232 1.071-.232z"/>
    </symbol>
    <symbol id="icon-heart-regular" viewBox="0 0 32 32">
      <path d="m14.113 29.262-.156-.144-10.95-10.169a9.41 9.41 0 0 1-3.006-6.9v-.206c0-4.4 3.125-8.175 7.45-9a9.137 9.137 0 0 1 8.55 2.9c.262-.3.544-.575.844-.831a9.169 9.169 0 0 1 7.707-2.076 9.167 9.167 0 0 1 7.45 9.006v.206a9.41 9.41 0 0 1-3.006 6.9L17.89 29.261c-.512.475-1.188.744-1.887.744s-1.375-.262-1.887-.744zm.831-20.199c-.025-.019-.044-.044-.063-.069l-1.119-1.256a6.152 6.152 0 0 0-5.75-1.95 6.162 6.162 0 0 0-5.013 6.056v.206a6.42 6.42 0 0 0 2.05 4.7l10.95 10.169 10.95-10.169a6.42 6.42 0 0 0 2.05-4.7v-.206c0-2.956-2.1-5.5-5.006-6.056a6.163 6.163 0 0 0-5.75 1.95l-.006.006-.006.006L17.118 9c-.019.025-.044.044-.063.069a1.493 1.493 0 0 1-2.112 0z"/>
    </symbol>
    <symbol id="icon-image-regular" viewBox="0 0 32 32">
      <path d="M28 5c.55 0 1 .45 1 1v19.988l-.313-.406-8.5-11a1.507 1.507 0 0 0-2.376 0l-5.188 6.713-1.906-2.669c-.281-.394-.731-.625-1.219-.625s-.938.231-1.219.631l-5 7-.281.387V6c0-.55.45-1 1-1h24zM4 2C1.794 2 0 3.794 0 6v20c0 2.206 1.794 4 4 4h24c2.206 0 4-1.794 4-4V6c0-2.206-1.794-4-4-4H4zm5 12a3 3 0 1 0 0-6 3 3 0 1 0 0 6z"/>
    </symbol>
    <symbol id="icon-telegram-alt-svgrepo-com" viewBox="0 0 32 32">
      <path d="m25.6 5.867-21.733 8.4C2.4 14.8 2.4 15.734 3.6 16l5.467 1.733 2.133 6.4c.267.667.133.933.8.933.533 0 .8-.267 1.067-.533l2.667-2.667 5.6 4.133c1.067.533 1.733.267 2-.933l3.733-17.467c.4-1.467-.533-2.267-1.467-1.733zm-2.8 4-10.4 9.467-.4 4.4-2.133-6.4 12.267-7.733c.533-.4 1.067-.133.667.267z"/>
    </symbol>
  </defs>
</svg>
